<svg width="16" height="16" viewBox="0 0 16 16" fill="none" xmlns="http://www.w3.org/2000/svg">
<path d="M14.3977 7.95055H13.2677C13.0336 7.95055 12.8439 8.14029 12.8439 8.37432V13.5265C12.8439 13.7999 12.6214 14.0224 12.3479 14.0224H2.47384C2.20043 14.0224 1.97804 13.7999 1.97804 13.5265V3.65259C1.97804 3.37907 2.20043 3.15651 2.47384 3.15651H7.8898C8.12383 3.15651 8.31356 2.96678 8.31356 2.73275V1.60272C8.31356 1.36869 8.12383 1.17896 7.8898 1.17896H2.47384C1.11001 1.17896 0.000488281 2.28865 0.000488281 3.65259V13.5265C0.000488281 14.8905 1.11007 16 2.47384 16H12.3478C13.7118 16 14.8214 14.8904 14.8214 13.5265V8.37437C14.8215 8.14029 14.6317 7.95055 14.3977 7.95055Z" fill="white"/>
<path d="M15.5761 0H11.0812C10.8472 0 10.6575 0.189732 10.6575 0.423762V1.55379C10.6575 1.78782 10.8472 1.97755 11.0812 1.97755H12.624L6.8187 7.78269C6.65321 7.94819 6.65321 8.21646 6.8187 8.38201L7.61774 9.18111C7.69724 9.26061 7.80499 9.30524 7.91743 9.30524C8.02981 9.30524 8.13762 9.26061 8.21706 9.18111L14.0223 3.37586V4.91852C14.0223 5.15255 14.212 5.34228 14.4461 5.34228H15.5761C15.8101 5.34228 15.9999 5.15255 15.9999 4.91852V0.423762C15.9999 0.189732 15.8101 0 15.5761 0Z" fill="white"/>
</svg>
